# xmcd
#
# Track frame offsets:
#	150
#	17830
#	30640
#	45491
#	70843
#	91303
#	109892
#	126426
#	145037
#	159588
#	182754
#	204780
#	222039
#	238638
#	252890
#
# Disc length: 3593 seconds
#
# Revision: 1
# Processed by: cddbd v1.5.2PL0 Copyright (c) Steve Scherf et al.
# Submitted via: audiograbber 1.83.01
#
DISCID=c90e070f
DTITLE=Blackhawk - Brothers Of The Southland (Special Edition)
DYEAR=2014
DGENRE=Country
TTITLE0=Brighter
TTITLE1=That's What I'm Talkin' About
TTITLE2=Heart With A View
TTITLE3=Brothers Of The Southland
TTITLE4=Champagne High
TTITLE5=Baby, The Rain Must Fall
TTITLE6=Wichita
TTITLE7=Voices
TTITLE8=Wide Open Spaces
TTITLE9=Bluebird
TTITLE10=Down From The Mountain
TTITLE11=A Little Rain
TTITLE12=Chameleon's All-Star Love Band
TTITLE13=Mama Who's Gonna Rock
TTITLE14=Waiting To Be Found
EXTD=
EXTT0=
EXTT1=
EXTT2=
EXTT3=
EXTT4=
EXTT5=
EXTT6=
EXTT7=
EXTT8=
EXTT9=
EXTT10=
EXTT11=
EXTT12=
EXTT13=
EXTT14=
PLAYORDER=
